Coordinates
version=1
nRows=11
nColumns=63
inDegrees=yes

Units are S.I. units (second, meters, Newtons, ...)
If the header above contains a line with 'inDegrees', this indicates whether rotational values are in degrees (yes) or radians (no).

endheader
time	pelvis_tilt	pelvis_list	pelvis_rotation	pelvis_tx	pelvis_ty	pelvis_tz	hip_flexion_r	hip_adduction_r	hip_rotation_r	knee_angle_r	knee_angle_r_beta	ankle_angle_r	subtalar_angle_r	mtp_angle_r	hip_flexion_l	hip_adduction_l	hip_rotation_l	knee_angle_l	knee_angle_l_beta	ankle_angle_l	subtalar_angle_l	mtp_angle_l	L5_S1_Flex_Ext	L5_S1_Lat_Bending	L5_S1_axial_rotation	L4_L5_Flex_Ext	L4_L5_Lat_Bending	L4_L5_axial_rotation	L3_L4_Flex_Ext	L3_L4_Lat_Bending	L3_L4_axial_rotation	L2_L3_Flex_Ext	L2_L3_Lat_Bending	L2_L3_axial_rotation	L1_L2_Flex_Ext	L1_L2_Lat_Bending	L1_L2_axial_rotation	L1_T12_Flex_Ext	L1_T12_Lat_Bending	L1_T12_axial_rotation	Abs_r3	Abs_r2	Abs_r1	Abs_t1	Abs_t2	neck_flexion	neck_bending	neck_rotation	arm_flex_r	arm_add_r	arm_rot_r	elbow_flex_r	pro_sup_r	wrist_flex_r	wrist_dev_r	arm_flex_l	arm_add_l	arm_rot_l	elbow_flex_l	pro_sup_l	wrist_flex_l	wrist_dev_l
6.610169	-77.347903	-64.606865	35.801225	0.110495	0.838356	0.237753	120.891634	-4.987822	40.576319	70.608255	1.232347	-76.863340	19.184017	0.000000	102.058442	8.271239	-54.468415	51.086687	0.891631	50.991895	14.383047	0.000000	0.257577	-4.293182	-0.861292	0.478346	-5.709932	-0.915122	0.423173	-10.438443	-0.915122	0.294385	-10.438443	-0.753630	0.239186	-8.754657	-0.699799	0.147179	-6.650139	-0.645969	1.839846	-48.565334	-4.790246	0.000000	0.000000	0.480234	27.504235	-21.402829	89.028829	-11.014213	126.753171	0.315951	2.281145	-54.515888	-23.448803	56.276939	-23.152885	51.059368	71.810437	89.339466	-67.092273	-22.719323
6.627119	-77.598587	-64.373734	35.257244	0.111779	0.838460	0.239510	120.594959	-4.372864	40.830675	70.741249	1.234668	-75.792596	19.099754	0.000000	102.035191	7.654224	-54.750127	51.677036	0.901934	50.919545	14.578105	0.000000	0.244590	-4.319066	-0.905836	0.454228	-5.744358	-0.962450	0.401837	-10.501377	-0.962450	0.279542	-10.501377	-0.792606	0.227126	-8.807439	-0.735991	0.139759	-6.690233	-0.679377	1.747083	-48.858138	-5.037985	0.000000	0.000000	0.822786	27.608372	-20.419827	88.875441	-10.337207	127.532332	0.306027	2.238296	-54.064676	-23.148418	56.817456	-24.344829	49.617151	74.724741	89.350373	-64.568547	-21.191637
6.644068	-73.742678	-64.454205	38.208476	0.111678	0.839559	0.241948	119.783696	-4.073007	39.561098	70.435104	1.229324	-74.858580	19.012024	0.000000	102.110610	7.061104	-53.436031	52.317667	0.913116	50.638890	14.390661	0.000000	0.231336	-4.111565	-0.912894	0.429613	-5.468382	-0.969950	0.380061	-9.996860	-0.969950	0.264394	-9.996860	-0.798782	0.214818	-8.384304	-0.741726	0.132185	-6.368814	-0.684670	1.652407	-46.510848	-5.077241	0.000000	0.000000	1.052035	26.169293	-17.891853	89.158849	-9.342063	129.474770	0.300200	2.176304	-53.393108	-22.709317	56.935019	-24.860952	47.237083	77.404587	89.361735	-62.145400	-19.861324
6.661017	-65.945285	-64.924713	44.552409	0.110263	0.841533	0.244993	118.527752	-4.094397	36.883244	69.747002	1.217315	-73.902670	18.932139	0.000000	102.301268	6.513927	-50.619557	52.992930	0.924901	50.173305	13.836803	0.000000	0.219696	-3.685475	-0.896266	0.407998	-4.901682	-0.952282	0.360939	-8.960864	-0.952282	0.251091	-8.960864	-0.784232	0.204010	-7.515421	-0.728216	0.125534	-5.708801	-0.672199	1.569269	-41.690833	-4.984760	0.000000	0.000000	1.079475	23.251167	-13.971140	89.794296	-8.053469	132.216794	0.302485	2.096930	-52.288464	-22.350438	56.591039	-24.797728	43.957955	79.789972	89.375269	-59.937035	-18.763338
6.677966	-59.804395	-65.631880	49.290588	0.109436	0.844186	0.247924	117.331100	-4.024015	34.484848	68.921552	1.202908	-72.789170	18.867356	0.000000	102.412075	5.911107	-48.081605	53.429038	0.932513	49.643521	13.332644	0.000000	0.199264	-3.308623	-0.895876	0.370054	-4.400468	-0.951868	0.327371	-8.044586	-0.951868	0.227739	-8.044586	-0.783891	0.185037	-6.746944	-0.727899	0.113860	-5.125057	-0.671907	1.423325	-37.427804	-4.982593	0.000000	0.000000	0.823436	20.681156	-10.419901	90.184320	-6.799920	134.452521	0.299004	1.991786	-51.294264	-22.201203	56.255165	-25.012488	40.898921	81.844122	89.384472	-58.086165	-17.892612
6.694915	-52.491640	-66.348146	55.001644	0.108298	0.847515	0.250565	115.909396	-4.016463	31.568743	67.834018	1.183927	-71.394818	18.821355	0.000000	102.531418	5.336011	-45.051693	53.733044	0.937819	49.046018	12.772637	0.000000	0.173506	-2.859007	-0.896748	0.322218	-3.802479	-0.952795	0.285053	-6.951389	-0.952795	0.198300	-6.951389	-0.784655	0.161117	-5.830087	-0.728608	0.099141	-4.428602	-0.672561	1.239334	-32.341658	-4.987445	0.000000	0.000000	0.517197	17.561705	-6.324255	90.571309	-5.387847	136.886696	0.297471	1.876675	-50.315224	-22.205472	55.790417	-25.149149	37.587687	83.557364	89.393225	-56.641099	-17.253249
6.711864	-44.053609	-67.049920	61.657219	0.106874	0.851357	0.252735	114.274565	-4.054723	28.170144	66.518385	1.160965	-69.632030	18.795297	0.000000	102.675772	4.779612	-41.581109	53.931416	0.941281	48.417563	12.175430	0.000000	0.144074	-2.345185	-0.896602	0.267560	-3.119096	-0.952640	0.236700	-5.702083	-0.952640	0.164662	-5.702083	-0.784527	0.133787	-4.782302	-0.728489	0.082324	-3.632692	-0.672452	1.029108	-26.529205	-4.986633	0.000000	0.000000	0.231644	13.900528	-1.739118	90.923085	-3.858281	139.654266	0.296499	1.758448	-49.541174	-22.231630	55.236379	-25.214446	34.082316	84.900034	89.401921	-55.606101	-16.835398
6.728814	-34.639606	-67.685749	69.135985	0.105190	0.855565	0.254292	112.440931	-4.121101	24.319572	65.002564	1.134509	-67.472372	18.783679	0.000000	102.855966	4.249639	-37.707794	54.043288	0.943233	47.791898	11.534931	0.000000	0.110137	-1.777995	-0.892839	0.204536	-2.364733	-0.948641	0.180944	-4.323016	-0.948641	0.125876	-4.323016	-0.781234	0.102273	-3.625687	-0.725431	0.062932	-2.754114	-0.669629	0.786699	-20.113032	-4.965700	0.000000	0.000000	0.038603	9.745321	3.214769	91.217379	-2.279675	142.755474	0.294923	1.638664	-49.086820	-22.221769	54.636262	-25.207655	30.458820	85.878480	89.411043	-54.917726	-16.627752
6.745763	-24.255172	-68.241285	77.437223	0.103166	0.859934	0.255199	110.435448	-4.214598	19.959902	63.317617	1.105101	-64.907276	18.779026	0.000000	103.122084	3.769806	-33.365120	54.108060	0.944364	47.185147	10.812566	0.000000	0.074990	-1.153588	-0.884993	0.139264	-1.534272	-0.940305	0.123201	-2.804834	-0.940305	0.085706	-2.804834	-0.774369	0.069636	-2.352397	-0.719057	0.042849	-1.786908	-0.663745	0.535645	-13.049620	-4.922065	0.000000	0.000000	-0.061708	5.132912	8.434328	91.447787	-0.708320	146.280554	0.291793	1.510124	-49.014267	-22.123572	53.947835	-25.081913	26.689880	86.529369	89.422623	-54.483684	-16.637707
6.762712	-13.360945	-68.624800	86.141313	0.100970	0.864330	0.255363	108.297885	-4.263517	15.257968	61.484513	1.073107	-62.023594	18.766380	0.000000	103.441510	3.318435	-28.763769	54.130979	0.944764	46.632016	10.061962	0.000000	0.035341	-0.501772	-0.867675	0.065633	-0.667357	-0.921905	0.058062	-1.220008	-0.921905	0.040392	-1.220008	-0.759216	0.032818	-1.023213	-0.704986	0.020194	-0.777245	-0.650756	0.252440	-5.676144	-4.825749	0.000000	0.000000	-0.070077	0.315972	13.645895	91.575071	0.788452	149.996153	0.285865	1.406537	-49.321446	-21.990536	53.267988	-24.879933	22.976783	86.853657	89.437183	-54.301744	-16.869107
6.779661	-2.139191	-68.861903	95.101467	0.098547	0.868516	0.254845	106.098296	-4.269375	10.254158	59.551532	1.039370	-58.870340	18.729808	0.000000	103.874710	2.937122	-23.889068	54.159443	0.945261	46.125361	9.192469	0.000000	-0.002298	0.173185	-0.845824	-0.004267	0.230336	-0.898688	-0.003775	0.421082	-0.898688	-0.002626	0.421082	-0.740096	-0.002133	0.353159	-0.687232	-0.001313	0.268263	-0.634368	-0.016411	1.959102	-4.704218	0.000000	0.000000	-0.085140	-4.533120	18.747465	91.578589	2.187580	153.903173	0.277821	1.356460	-50.028963	-21.832468	52.513138	-24.586010	19.280234	86.879711	89.456713	-54.293378	-17.351978
